
<global>
amp_veltrack=0
ampeg_attack=0.01
ampeg_release=0.35
</global>

<group>
group_label=PP
seq_length=1
seq_position=1
xf_cccurve=gain
xfin_hicc1=42
xfout_hicc1=84
xfout_locc1=43

<region>
hikey=A5
hivel=127
lokey=G#5
loop_end=241380
loop_mode=loop_continuous
loop_start=86011
loop_xfade=38842
lovel=0
offset=9049
pitch_keycenter=G#5
sample=Violas_trill_maj3rd_PP_G#5.opus
</region>

<region>
hikey=A4
hivel=127
lokey=G#4
loop_end=252177
loop_mode=loop_continuous
loop_start=89858
loop_xfade=40579
lovel=0
offset=11940
pitch_keycenter=G#4
sample=Violas_trill_maj3rd_PP_G#4.opus
</region>

<region>
hikey=A3
hivel=127
lokey=G#3
loop_end=282189
loop_mode=loop_continuous
loop_start=100552
loop_xfade=45409
lovel=0
offset=16320
pitch_keycenter=G#3
sample=Violas_trill_maj3rd_PP_G#3.opus
</region>

<region>
hikey=G5
hivel=127
lokey=F#5
loop_end=282472
loop_mode=loop_continuous
loop_start=100653
loop_xfade=45454
lovel=0
offset=12753
pitch_keycenter=F#5
sample=Violas_trill_maj3rd_PP_F#5.opus
</region>

<region>
hikey=G4
hivel=127
lokey=F#4
loop_end=272616
loop_mode=loop_continuous
loop_start=97141
loop_xfade=43868
lovel=0
offset=13184
pitch_keycenter=F#4
sample=Violas_trill_maj3rd_PP_F#4.opus
</region>

<region>
hikey=G3
hivel=127
lokey=F#3
loop_end=254223
loop_mode=loop_continuous
loop_start=90587
loop_xfade=40909
lovel=0
offset=19387
pitch_keycenter=F#3
sample=Violas_trill_maj3rd_PP_F#3.opus
</region>

<region>
hikey=F5
hivel=127
lokey=E5
loop_end=274099
loop_mode=loop_continuous
loop_start=97670
loop_xfade=44107
lovel=0
offset=3819
pitch_keycenter=E5
sample=Violas_trill_maj3rd_PP_E5.opus
</region>

<region>
hikey=F4
hivel=127
lokey=E4
loop_end=281398
loop_mode=loop_continuous
loop_start=100271
loop_xfade=45281
lovel=0
offset=14727
pitch_keycenter=E4
sample=Violas_trill_maj3rd_PP_E4.opus
</region>

<region>
hikey=F3
hivel=127
lokey=E3
loop_end=279684
loop_mode=loop_continuous
loop_start=99659
loop_xfade=45006
lovel=0
offset=11175
pitch_keycenter=E3
sample=Violas_trill_maj3rd_PP_E3.opus
</region>

<region>
hikey=D#5
hivel=127
lokey=D5
loop_end=282043
loop_mode=loop_continuous
loop_start=100500
loop_xfade=45385
lovel=0
offset=15807
pitch_keycenter=D5
sample=Violas_trill_maj3rd_PP_D5.opus
</region>

<region>
hikey=D#4
hivel=127
lokey=D4
loop_end=282159
loop_mode=loop_continuous
loop_start=100542
loop_xfade=45404
lovel=0
offset=18800
pitch_keycenter=D4
sample=Violas_trill_maj3rd_PP_D4.opus
</region>

<region>
hikey=D#3
hivel=127
lokey=D3
loop_end=280206
loop_mode=loop_continuous
loop_start=99846
loop_xfade=45090
lovel=0
offset=8648
pitch_keycenter=D3
sample=Violas_trill_maj3rd_PP_D3.opus
</region>

<region>
hikey=C#5
hivel=127
lokey=C5
loop_end=282352
loop_mode=loop_continuous
loop_start=100610
loop_xfade=45435
lovel=0
offset=11096
pitch_keycenter=C5
sample=Violas_trill_maj3rd_PP_C5.opus
</region>

<region>
hikey=C#4
hivel=127
lokey=C4
loop_end=282472
loop_mode=loop_continuous
loop_start=100653
loop_xfade=45454
lovel=0
offset=17027
sample=Violas_trill_maj3rd_PP_C4.opus
</region>

<region>
hikey=C#3
hivel=127
lokey=C3
loop_end=282472
loop_mode=loop_continuous
loop_start=100653
loop_xfade=45454
lovel=0
offset=15168
pitch_keycenter=C3
sample=Violas_trill_maj3rd_PP_C3.opus
</region>

<region>
hikey=B4
hivel=127
lokey=A#4
loop_end=282347
loop_mode=loop_continuous
loop_start=100609
loop_xfade=45434
lovel=0
offset=12399
pitch_keycenter=A#4
sample=Violas_trill_maj3rd_PP_A#4.opus
</region>

<region>
hikey=B3
hivel=127
lokey=A#3
loop_end=278948
loop_mode=loop_continuous
loop_start=99397
loop_xfade=44887
lovel=0
offset=12342
pitch_keycenter=A#3
sample=Violas_trill_maj3rd_PP_A#3.opus
</region>
</group>

<group>
group_label=MF
seq_length=1
seq_position=1
xf_cccurve=gain
xfin_hicc1=84
xfin_locc1=43
xfout_hicc1=127
xfout_locc1=85

<region>
hikey=A5
hivel=127
lokey=G#5
loop_end=281396
loop_mode=loop_continuous
loop_start=100270
loop_xfade=45281
lovel=0
offset=16683
pitch_keycenter=G#5
sample=Violas_trill_maj3rd_MF_G#5.opus
</region>

<region>
hikey=A4
hivel=127
lokey=G#4
loop_end=229742
loop_mode=loop_continuous
loop_start=81864
loop_xfade=36969
lovel=0
offset=1036
pitch_keycenter=G#4
sample=Violas_trill_maj3rd_MF_G#4.opus
</region>

<region>
hikey=A3
hivel=127
lokey=G#3
loop_end=228796
loop_mode=loop_continuous
loop_start=81527
loop_xfade=36817
lovel=0
offset=222
pitch_keycenter=G#3
sample=Violas_trill_maj3rd_MF_G#3.opus
</region>

<region>
hikey=G5
hivel=127
lokey=F#5
loop_end=272218
loop_mode=loop_continuous
loop_start=96999
loop_xfade=43804
lovel=0
offset=912
pitch_keycenter=F#5
sample=Violas_trill_maj3rd_MF_F#5.opus
</region>

<region>
hikey=G4
hivel=127
lokey=F#4
loop_end=228808
loop_mode=loop_continuous
loop_start=81531
loop_xfade=36819
lovel=0
offset=3019
pitch_keycenter=F#4
sample=Violas_trill_maj3rd_MF_F#4.opus
</region>

<region>
hikey=G3
hivel=127
lokey=F#3
loop_end=228552
loop_mode=loop_continuous
loop_start=81440
loop_xfade=36778
lovel=0
offset=1856
pitch_keycenter=F#3
sample=Violas_trill_maj3rd_MF_F#3.opus
</region>

<region>
hikey=F5
hivel=127
lokey=E5
loop_end=247638
loop_mode=loop_continuous
loop_start=88241
loop_xfade=39849
lovel=0
offset=2890
pitch_keycenter=E5
sample=Violas_trill_maj3rd_MF_E5.opus
</region>

<region>
hikey=F4
hivel=127
lokey=E4
loop_end=232349
loop_mode=loop_continuous
loop_start=82793
loop_xfade=37389
lovel=0
offset=603
pitch_keycenter=E4
sample=Violas_trill_maj3rd_MF_E4.opus
</region>

<region>
hikey=F3
hivel=127
lokey=E3
loop_end=225302
loop_mode=loop_continuous
loop_start=80282
loop_xfade=36255
lovel=0
offset=420
pitch_keycenter=E3
sample=Violas_trill_maj3rd_MF_E3.opus
</region>

<region>
hikey=D#5
hivel=127
lokey=D5
loop_end=272174
loop_mode=loop_continuous
loop_start=96983
loop_xfade=43797
lovel=0
offset=10070
pitch_keycenter=D5
sample=Violas_trill_maj3rd_MF_D5.opus
</region>

<region>
hikey=D#4
hivel=127
lokey=D4
loop_end=229393
loop_mode=loop_continuous
loop_start=81739
loop_xfade=36913
lovel=0
offset=1373
pitch_keycenter=D4
sample=Violas_trill_maj3rd_MF_D4.opus
</region>

<region>
hikey=D#3
hivel=127
lokey=D3
loop_end=229310
loop_mode=loop_continuous
loop_start=81710
loop_xfade=36900
lovel=0
pitch_keycenter=D3
sample=Violas_trill_maj3rd_MF_D3.opus
</region>

<region>
hikey=C#5
hivel=127
lokey=C5
loop_end=271705
loop_mode=loop_continuous
loop_start=96817
loop_xfade=43722
lovel=0
offset=3232
pitch_keycenter=C5
sample=Violas_trill_maj3rd_MF_C5.opus
</region>

<region>
hikey=C#4
hivel=127
lokey=C4
loop_end=246086
loop_mode=loop_continuous
loop_start=87688
loop_xfade=39599
lovel=0
offset=860
sample=Violas_trill_maj3rd_MF_C4.opus
</region>

<region>
hikey=C#3
hivel=127
lokey=C3
loop_end=234028
loop_mode=loop_continuous
loop_start=83391
loop_xfade=37659
lovel=0
offset=289
pitch_keycenter=C3
sample=Violas_trill_maj3rd_MF_C3.opus
</region>

<region>
hikey=B4
hivel=127
lokey=A#4
loop_end=279920
loop_mode=loop_continuous
loop_start=99744
loop_xfade=45044
lovel=0
offset=11714
pitch_keycenter=A#4
sample=Violas_trill_maj3rd_MF_A#4.opus
</region>

<region>
hikey=B3
hivel=127
lokey=A#3
loop_end=227080
loop_mode=loop_continuous
loop_start=80915
loop_xfade=36541
lovel=0
offset=1136
pitch_keycenter=A#3
sample=Violas_trill_maj3rd_MF_A#3.opus
</region>
</group>

<group>
group_label=FF
seq_length=1
seq_position=1
xf_cccurve=gain
xfin_hicc1=127
xfin_locc1=85
xfout_hicc1=127
xfout_locc1=127

<region>
hikey=A5
hivel=127
lokey=G#5
loop_end=222994
loop_mode=loop_continuous
loop_start=79459
loop_xfade=35883
lovel=0
offset=524
pitch_keycenter=G#5
sample=Violas_trill_maj3rd_FF_G#5.opus
</region>

<region>
hikey=A4
hivel=127
lokey=G#4
loop_end=232339
loop_mode=loop_continuous
loop_start=82789
loop_xfade=37387
lovel=0
offset=80
pitch_keycenter=G#4
sample=Violas_trill_maj3rd_FF_G#4.opus
</region>

<region>
hikey=A3
hivel=127
lokey=G#3
loop_end=229751
loop_mode=loop_continuous
loop_start=81867
loop_xfade=36971
lovel=0
offset=1601
pitch_keycenter=G#3
sample=Violas_trill_maj3rd_FF_G#3.opus
</region>

<region>
hikey=G5
hivel=127
lokey=F#5
loop_end=223422
loop_mode=loop_continuous
loop_start=79612
loop_xfade=35952
lovel=0
offset=321
pitch_keycenter=F#5
sample=Violas_trill_maj3rd_FF_F#5.opus
</region>

<region>
hikey=G4
hivel=127
lokey=F#4
loop_end=224125
loop_mode=loop_continuous
loop_start=79862
loop_xfade=36065
lovel=0
pitch_keycenter=F#4
sample=Violas_trill_maj3rd_FF_F#4.opus
</region>

<region>
hikey=G3
hivel=127
lokey=F#3
loop_end=231269
loop_mode=loop_continuous
loop_start=82408
loop_xfade=37215
lovel=0
offset=1117
pitch_keycenter=F#3
sample=Violas_trill_maj3rd_FF_F#3.opus
</region>

<region>
hikey=F5
hivel=127
lokey=E5
loop_end=224131
loop_mode=loop_continuous
loop_start=79864
loop_xfade=36066
lovel=0
offset=1218
pitch_keycenter=E5
sample=Violas_trill_maj3rd_FF_E5.opus
</region>

<region>
hikey=F4
hivel=127
lokey=E4
loop_end=220643
loop_mode=loop_continuous
loop_start=78621
loop_xfade=35505
lovel=0
offset=2366
pitch_keycenter=E4
sample=Violas_trill_maj3rd_FF_E4.opus
</region>

<region>
hikey=F3
hivel=127
lokey=E3
loop_end=224850
loop_mode=loop_continuous
loop_start=80120
loop_xfade=36182
lovel=0
offset=430
pitch_keycenter=E3
sample=Violas_trill_maj3rd_FF_E3.opus
</region>

<region>
hikey=D#5
hivel=127
lokey=D5
loop_end=227526
loop_mode=loop_continuous
loop_start=81074
loop_xfade=36613
lovel=0
offset=255
pitch_keycenter=D5
sample=Violas_trill_maj3rd_FF_D5.opus
</region>

<region>
hikey=D#4
hivel=127
lokey=D4
loop_end=227083
loop_mode=loop_continuous
loop_start=80916
loop_xfade=36541
lovel=0
offset=5320
pitch_keycenter=D4
sample=Violas_trill_maj3rd_FF_D4.opus
</region>

<region>
hikey=D#3
hivel=127
lokey=D3
loop_end=230949
loop_mode=loop_continuous
loop_start=82294
loop_xfade=37163
lovel=0
offset=146
pitch_keycenter=D3
sample=Violas_trill_maj3rd_FF_D3.opus
</region>

<region>
hikey=C#5
hivel=127
lokey=C5
loop_end=228486
loop_mode=loop_continuous
loop_start=81416
loop_xfade=36767
lovel=0
offset=1761
pitch_keycenter=C5
sample=Violas_trill_maj3rd_FF_C5.opus
</region>

<region>
hikey=C#4
hivel=127
lokey=C4
loop_end=229573
loop_mode=loop_continuous
loop_start=81804
loop_xfade=36942
lovel=0
offset=576
sample=Violas_trill_maj3rd_FF_C4.opus
</region>

<region>
hikey=C#3
hivel=127
lokey=C3
loop_end=228705
loop_mode=loop_continuous
loop_start=81494
loop_xfade=36802
lovel=0
pitch_keycenter=C3
sample=Violas_trill_maj3rd_FF_C3.opus
</region>

<region>
hikey=B4
hivel=127
lokey=A#4
loop_end=233875
loop_mode=loop_continuous
loop_start=83336
loop_xfade=37634
lovel=0
offset=561
pitch_keycenter=A#4
sample=Violas_trill_maj3rd_FF_A#4.opus
</region>

<region>
hikey=B3
hivel=127
lokey=A#3
loop_end=224351
loop_mode=loop_continuous
loop_start=79943
loop_xfade=36102
lovel=0
pitch_keycenter=A#3
sample=Violas_trill_maj3rd_FF_A#3.opus
</region>
</group>